<svg version="1.1" xmlns="http://www.w3.org/2000/svg" xmlns:xlink="http://www.w3.org/1999/xlink" xmlns:i="http://ns.adobe.com/AdobeIllustrator/10.0/" xmlns:sketch="http://www.bohemiancoding.com/sketch/ns" height="100%" width="100%" x="0px" y="0px" viewBox="0 0 640 480" xml:space="preserve" preserveAspectRatio="xMidYMid meet" class="">{{text2Gradient}}{{iconGradient}}<rect x="0px" y="0px" width="100%" height="100%" fill="#ffff"></rect><g class="logo-container-box logoContainerBox" transform="scale(0.99) translate(3.2323232323232105,2.4242500536369676)"><g class="containerBody" transform="scale(1.12) translate(-34.285714285714334,-25.714285714285722)"><g class="sampleTexts_1" transform="scale(1) translate(0,33.25)"><g class="logo--name svgLogoName_1 logoNameBox" transform="scale(1) translate(177.40500244498253,227.54000091552734)" fill="#070704"><path d="M3.53-0.98L3.53-0.98L3.53-46.25L3.53-46.25Q3.53-47.97 2.83-48.67L2.83-48.67L2.83-48.67Q2.13-49.36 0.41-49.36L0.41-49.36L0.41-49.36Q0.41-54.04 5.66-54.04L5.66-54.04L5.66-54.04Q10.00-54.04 10.00-48.38L10.00-48.38L10.00-26.98L17.63-26.98L17.63-45.59L17.30-53.30L17.30-53.30Q20.09-53.71 22.80-53.71L22.80-53.71L22.80-53.71Q24.11-53.71 24.11-52.32L24.11-52.32L24.11-6.97L24.11-6.97Q24.11-5.25 24.80-4.55L24.80-4.55L24.80-4.55Q25.50-3.85 27.22-3.85L27.22-3.85L27.22-3.85Q27.22 0.82 21.98 0.82L21.98 0.82L21.98 0.82Q17.63 0.82 17.63-4.84L17.63-4.84L17.63-21.57L10.00-21.57L10.00-7.71L10.33 0L10.33 0Q7.54 0.41 4.84 0.41L4.84 0.41L4.84 0.41Q3.53 0.41 3.53-0.98ZM30.44-53.30L45.77-53.30L45.77-53.30Q48.72-53.30 50.20-53.71L50.20-53.71L50.20-53.71Q50.86-51.41 50.86-49.20L50.86-49.20L50.86-49.20Q50.86-47.89 49.71-47.89L49.71-47.89L43.31-47.89L43.31-7.71L43.64 0L43.64 0Q40.85 0.41 38.15 0.41L38.15 0.41L38.15 0.41Q36.83 0.41 36.83-0.98L36.83-0.98L36.83-47.89L34.37-47.89L34.37-47.89Q31.42-47.89 29.95-47.48L29.95-47.48L29.95-47.48Q29.29-49.77 29.29-51.99L29.29-51.99L29.29-51.99Q29.29-53.30 30.44-53.30L30.44-53.30ZM66.86-47.89L66.86-47.89L66.86-47.89Q64.65-47.89 62.43-45.67L62.43-45.67L62.43-7.71L62.76 0L62.76 0Q59.97 0.41 57.27 0.41L57.27 0.41L57.27 0.41Q55.96 0.41 55.96-0.98L55.96-0.98L55.96-45.35L55.96-45.35Q55.96-47.15 55.30-47.93L55.30-47.93L55.30-47.93Q54.64-48.71 52.92-48.71L52.92-48.71L52.92-48.71Q52.84-50.84 54.07-52.07L54.07-52.07L54.07-52.07Q55.30-53.30 58.01-53.30L58.01-53.30L58.01-53.30Q60.71-53.30 61.86-50.59L61.86-50.59L61.86-50.59Q65.06-53.30 68.42-53.30L68.42-53.30L68.42-53.30Q73.42-53.30 75.31-50.18L75.31-50.18L75.31-50.18Q78.67-53.30 82.36-53.30L82.36-53.30L82.36-53.30Q90.48-53.30 90.48-45.26L90.48-45.26L90.48-6.97L90.48-6.97Q90.48-5.25 91.18-4.55L91.18-4.55L91.18-4.55Q91.87-3.85 93.59-3.85L93.59-3.85L93.59-3.85Q93.59 0.82 88.35 0.82L88.35 0.82L88.35 0.82Q84 0.82 84-4.84L84-4.84L84-44.77L84-44.77Q84-47.89 80.80-47.89L80.80-47.89L80.80-47.89Q78.26-47.89 76.54-45.84L76.54-45.84L76.54-7.71L76.87 0L76.87 0Q74.08 0.41 71.37 0.41L71.37 0.41L71.37 0.41Q70.06 0.41 70.06-0.98L70.06-0.98L70.06-44.77L70.06-44.77Q70.06-47.89 66.86-47.89ZM104.35-5.41L110.09-5.41L110.09-5.41Q113.04-5.41 114.52-5.82L114.52-5.82L114.52-5.82Q115.18-3.53 115.18-1.31L115.18-1.31L115.18-1.31Q115.18 0 114.03 0L114.03 0L97.87 0L97.87-45.59L97.55-53.30L97.55-53.30Q100.33-53.71 103.04-53.71L103.04-53.71L103.04-53.71Q104.35-53.71 104.35-52.32L104.35-52.32L104.35-5.41ZM137.10-32.80L137.10-6.72L137.10-6.72Q137.10-2.71 137.68 0L137.68 0L137.68 0Q135.22 0.33 132.35 0.33L132.35 0.33L132.35 0.33Q130.95 0.33 130.95-0.90L130.95-0.90L130.95-33.37L130.95-33.37Q130.95-35.10 130.34-35.83L130.34-35.83L130.34-35.83Q129.72-36.57 128-36.57L128-36.57L128-36.57Q127.92-38.70 129.11-39.85L129.11-39.85L129.11-39.85Q130.30-41 132.96-41L132.96-41L132.96-41Q135.63-41 136.69-38.46L136.69-38.46L136.69-38.46Q139.23-41 142.80-41L142.80-41L142.80-41Q146.37-41 148.17-37.80L148.17-37.80L148.17-37.80Q150.96-41 154.36-41L154.36-41L154.36-41Q157.77-41 159.57-38.95L159.57-38.95L159.57-38.95Q161.37-36.90 161.37-33.13L161.37-33.13L161.37-6.81L161.37-6.81Q161.37-5.08 161.99-4.35L161.99-4.35L161.99-4.35Q162.60-3.61 164.33-3.61L164.33-3.61L164.33-3.61Q164.41-1.48 163.22-0.33L163.22-0.33L163.22-0.33Q162.03 0.82 159.73 0.82L159.73 0.82L159.73 0.82Q157.44 0.82 156.33-0.57L156.33-0.57L156.33-0.57Q155.22-1.97 155.22-5.17L155.22-5.17L155.22-32.64L155.22-32.64Q155.22-35.34 152.68-35.34L152.68-35.34L152.68-35.34Q150.47-35.34 149.24-32.80L149.24-32.80L149.24-6.72L149.24-6.72Q149.24-2.71 149.81 0L149.81 0L149.81 0Q147.35 0.33 144.48 0.33L144.48 0.33L144.48 0.33Q143.09 0.33 143.09-0.90L143.09-0.90L143.09-32.64L143.09-32.64Q143.09-35.34 140.55-35.34L140.55-35.34L140.55-35.34Q138.33-35.34 137.10-32.80L137.10-32.80ZM180.99-32.23L180.99-32.23L180.99-32.23Q180.99-33.87 180.00-34.81L180.00-34.81L180.00-34.81Q179.02-35.75 177.54-35.75L177.54-35.75L177.54-35.75Q174.51-35.75 174.51-33.21L174.51-33.21L174.51-21.48L178.45-24.44L178.45-24.44Q180.99-26.32 180.99-32.23ZM168.36-7.30L168.36-7.30L168.36-32.96L168.36-32.96Q168.36-41 177.83-41L177.83-41L177.83-41Q187.30-41 187.30-31.98L187.30-31.98L187.30-31.98Q187.30-28.37 185.99-25.34L185.99-25.34L185.99-25.34Q184.68-22.30 182.38-20.75L182.38-20.75L174.51-15.33L174.51-7.87L174.51-7.87Q174.51-4.43 177.75-4.43L177.75-4.43L177.75-4.43Q180.99-4.43 180.99-8.28L180.99-8.28L180.99-10.17L180.74-14.02L180.74-14.02Q181.81-14.27 182.92-14.27L182.92-14.27L182.92-14.27Q184.02-14.27 185.01-13.94L185.01-13.94L185.01-13.94Q186.97-13.45 186.97-12.05L186.97-12.05L186.97-6.15L186.97-6.15Q186.97-2.87 184.39-1.03L184.39-1.03L184.39-1.03Q181.81 0.82 177.54 0.82L177.54 0.82L177.54 0.82Q168.36 0.82 168.36-7.30ZM199.86-31.65L199.86-6.72L199.86-6.72Q199.86-2.79 200.44-0.16L200.44-0.16L200.44-0.16Q197.98 0.33 195.11 0.33L195.11 0.33L195.11 0.33Q193.71 0.33 193.71-0.90L193.71-0.90L193.71-33.37L193.71-33.37Q193.71-35.10 193.10-35.83L193.10-35.83L193.10-35.83Q192.48-36.57 190.76-36.57L190.76-36.57L190.76-36.57Q190.68-38.70 191.87-39.85L191.87-39.85L191.87-39.85Q193.06-41 195.27-41L195.27-41L195.27-41Q198.55-41 199.37-37.72L199.37-37.72L199.37-37.72Q201.42-41 205.19-41L205.19-41L205.19-41Q211.92-41 211.92-34.52L211.92-34.52L211.92-26.32L211.92-26.32Q211.92-24.93 209.95-24.44L209.95-24.44L209.95-24.44Q208.97-24.11 207.86-24.11L207.86-24.11L207.86-24.11Q206.75-24.11 205.69-24.35L205.69-24.35L205.69-24.35Q205.93-26.16 205.93-28.21L205.93-28.21L205.93-32.39L205.93-32.39Q205.93-35.10 203.47-35.10L203.47-35.10L203.47-35.10Q202.32-35.10 201.34-34.03L201.34-34.03L201.34-34.03Q200.36-32.96 199.86-31.65L199.86-31.65ZM226.37-9.35L226.37-5.49L228.01-5.49L228.01-5.49Q232.11-5.49 234.24-3.12L234.24-3.12L234.24-3.12Q236.37-0.74 236.37 3.61L236.37 3.61L236.37 3.61Q236.37 12.46 228.33 12.46L228.33 12.46L224.23 12.46L224.23 12.46Q220.13 12.46 218.00 10.04L218.00 10.04L218.00 10.04Q215.87 7.63 215.87 3.28L215.87 3.28L215.87 3.28Q215.87-2.71 220.22-4.67L220.22-4.67L220.22-10.41L220.22-10.41Q216.36-12.46 216.36-17.71L216.36-17.71L216.36-31.49L216.36-31.49Q216.36-35.59 218.90-37.88L218.90-37.88L218.90-37.88Q221.45-40.18 225.79-40.18L225.79-40.18L229.97-40.18L234.98-40.51L234.98-18.04L234.98-18.04Q234.98-14.10 232.64-11.85L232.64-11.85L232.64-11.85Q230.30-9.59 226.37-9.35L226.37-9.35ZM222.51-31.82L222.51-31.82L222.51-17.71L222.51-17.71Q222.51-16.32 223.41-15.38L223.41-15.38L223.41-15.38Q224.32-14.43 225.67-14.43L225.67-14.43L225.67-14.43Q227.02-14.43 227.92-15.38L227.92-15.38L227.92-15.38Q228.83-16.32 228.83-17.71L228.83-17.71L228.83-34.93L225.63-34.93L225.63-34.93Q224.23-34.93 223.37-34.07L223.37-34.07L223.37-34.07Q222.51-33.21 222.51-31.82ZM228.25-0.33L228.25-0.33L223.99-0.33L223.99-0.33Q221.77-0.33 221.77 3.49L221.77 3.49L221.77 3.49Q221.77 7.30 223.99 7.30L223.99 7.30L228.25 7.30L228.25 7.30Q230.47 7.30 230.47 3.49L230.47 3.49L230.47 3.49Q230.47-0.33 228.25-0.33ZM253.85-32.23L253.85-32.23L253.85-32.23Q253.85-33.87 252.87-34.81L252.87-34.81L252.87-34.81Q251.88-35.75 250.41-35.75L250.41-35.75L250.41-35.75Q247.37-35.75 247.37-33.21L247.37-33.21L247.37-21.48L251.31-24.44L251.31-24.44Q253.85-26.32 253.85-32.23ZM241.22-7.30L241.22-7.30L241.22-32.96L241.22-32.96Q241.22-41 250.70-41L250.70-41L250.70-41Q260.17-41 260.17-31.98L260.17-31.98L260.17-31.98Q260.17-28.37 258.85-25.34L258.85-25.34L258.85-25.34Q257.54-22.30 255.25-20.75L255.25-20.75L247.37-15.33L247.37-7.87L247.37-7.87Q247.37-4.43 250.61-4.43L250.61-4.43L250.61-4.43Q253.85-4.43 253.85-8.28L253.85-8.28L253.85-10.17L253.61-14.02L253.61-14.02Q254.67-14.27 255.78-14.27L255.78-14.27L255.78-14.27Q256.89-14.27 257.87-13.94L257.87-13.94L257.87-13.94Q259.84-13.45 259.84-12.05L259.84-12.05L259.84-6.15L259.84-6.15Q259.84-2.87 257.25-1.03L257.25-1.03L257.25-1.03Q254.67 0.82 250.41 0.82L250.41 0.82L250.41 0.82Q241.22 0.82 241.22-7.30ZM272.73-31.65L272.73-6.72L272.73-6.72Q272.73-2.79 273.30-0.16L273.30-0.16L273.30-0.16Q270.84 0.33 267.97 0.33L267.97 0.33L267.97 0.33Q266.58 0.33 266.58-0.90L266.58-0.90L266.58-33.37L266.58-33.37Q266.58-35.10 265.96-35.83L265.96-35.83L265.96-35.83Q265.35-36.57 263.63-36.57L263.63-36.57L263.63-36.57Q263.54-38.70 264.73-39.85L264.73-39.85L264.73-39.85Q265.92-41 268.14-41L268.14-41L268.14-41Q271.42-41 272.24-37.72L272.24-37.72L272.24-37.72Q274.29-41 278.06-41L278.06-41L278.06-41Q284.78-41 284.78-34.52L284.78-34.52L284.78-26.32L284.78-26.32Q284.78-24.93 282.81-24.44L282.81-24.44L282.81-24.44Q281.83-24.11 280.72-24.11L280.72-24.11L280.72-24.11Q279.62-24.11 278.55-24.35L278.55-24.35L278.55-24.35Q278.80-26.16 278.80-28.21L278.80-28.21L278.80-32.39L278.80-32.39Q278.80-35.10 276.34-35.10L276.34-35.10L276.34-35.10Q275.19-35.10 274.20-34.03L274.20-34.03L274.20-34.03Q273.22-32.96 272.73-31.65L272.73-31.65Z"></path></g><g id="" class="logo--name svgSloganText_1 sloganBox" transform="scale(1) translate(320,254.4)" fill="#626746"></g></g></g></g></svg>